<?xml version="1.0" encoding="UTF-8"?>
<svg id="Layer_2" data-name="Layer 2" xmlns="http://www.w3.org/2000/svg" viewBox="0 0 283.62 73.76">
  <defs>
    <style>
      .cls-1, .cls-2, .cls-3, .cls-4, .cls-5 {
        stroke-width: 0px;
      }
      .cls-2 {
        fill: url(#radial-gradient);
      }
      .cls-3 {
        fill:#BF2169;
      }
      .cls-4 {
        fill: #a40000;
      }
    </style>
    <radialGradient id="radial-gradient" cx="66.4" cy="270.48" fx="41.42" fy="259.2" r="119.18" gradientTransform="translate(23.8 523.61) scale(1.67 -1.67)" gradientUnits="userSpaceOnUse">
      <stop offset="0" stop-color="#e07433"/>
      <stop offset=".09" stop-color="#df6e31"/>
      <stop offset=".22" stop-color="#db5d2c"/>
      <stop offset=".26" stop-color="#da562b"/>
      <stop offset=".37" stop-color="#d33936"/>
      <stop offset=".46" stop-color="#ce1e3b"/>
      <stop offset=".53" stop-color="#cd103c"/>
      <stop offset=".59" stop-color="#c21744"/>
      <stop offset=".74" stop-color="#a72156"/>
    </radialGradient>
  </defs>
  <g id="Logotype">
    <g>
      <path class="cls-4" d="m135.24,66.87c-.36-.49-.94-.74-1.52-.74-1.36,0-2.32,1.2-2.32,2.53,0,1.41.95,2.52,2.32,2.52.74,0,1.33-.3,1.76-.85l.54.46c-.54.73-1.33,1.07-2.3,1.07-1.74,0-3.09-1.35-3.09-3.19s1.29-3.2,3.09-3.2c.82,0,1.63.28,2.15.95l-.63.46Z"/>
      <path class="cls-4" d="m152.16,69.38c0,1.32-.62,2.48-2.29,2.48s-2.29-1.15-2.29-2.48v-3.76h.72v3.66c0,.98.36,1.91,1.57,1.91s1.57-.93,1.57-1.91v-3.66h.72v3.76Z"/>
      <path class="cls-4" d="m137.18,65.61c.28,0,.49.22.49.49,0,.28-.21.49-.49.49s-.49-.21-.49-.49c0-.27.21-.49.49-.49m-.33,2.06h.67v4.02h-.67v-4.02Z"/>
      <path class="cls-4" d="m140.87,68.24h-1.19v2.01c0,.51,0,.93.6.93.2,0,.41-.04.59-.14l.02.61c-.23.1-.53.15-.78.15-.95,0-1.11-.51-1.11-1.35v-2.21h-.88v-.57h.88v-1.14h.67v1.14h1.19v.57Z"/>
      <path class="cls-4" d="m143.52,72.62c-.26.68-.53,1.14-1.34,1.14-.19,0-.42-.02-.6-.1l.09-.58c.14.05.28.07.47.07.44,0,.6-.27.75-.66l.27-.75-1.66-4.05h.78l1.25,3.15h.02l1.19-3.15h.73l-1.94,4.94Z"/>
      <path class="cls-4" d="m153.04,68.63c0-.37-.03-.69-.03-.95h.64c0,.22.02.44.02.66h.02c.18-.39.68-.76,1.34-.76,1.06,0,1.53.67,1.53,1.64v2.48h-.67v-2.41c0-.67-.29-1.09-.92-1.09-.87,0-1.25.63-1.25,1.55v1.96h-.67v-3.07Z"/>
      <path class="cls-4" d="m157.82,65.61c.27,0,.49.22.49.49,0,.28-.21.49-.49.49s-.49-.21-.49-.49c0-.27.21-.49.49-.49m-.34,2.06h.67v4.02h-.67v-4.02Z"/>
      <polygon class="cls-4" points="161.36 71.7 160.62 71.7 158.98 67.68 159.76 67.68 161.02 70.83 161.03 70.83 162.23 67.68 162.95 67.68 161.36 71.7"/>
      <path class="cls-4" d="m171.04,70.64c.26.33.56.54,1.03.54.42,0,.89-.18.89-.62s-.43-.54-.86-.64c-.76-.17-1.42-.33-1.42-1.17,0-.78.76-1.19,1.5-1.19.57,0,1.09.22,1.37.73l-.56.37c-.17-.28-.46-.48-.85-.48-.37,0-.79.18-.79.56,0,.34.48.48,1.02.59.71.14,1.31.39,1.31,1.2,0,.91-.81,1.26-1.61,1.26-.68,0-1.17-.18-1.56-.75l.53-.41Z"/>
      <path class="cls-4" d="m166.94,70.97c-.47.61-1.04.83-1.79.83-1.26,0-2.04-.94-2.04-2.11,0-1.25.88-2.11,2.06-2.11s1.91.77,1.91,2.11v.21h-3.25c.05.7.58,1.29,1.32,1.29.57,0,.96-.21,1.28-.61l.51.4Zm-.57-1.64c-.03-.68-.47-1.14-1.21-1.14s-1.23.46-1.32,1.14h2.53Z"/>
      <path class="cls-4" d="m167.94,68.63c0-.37-.03-.69-.03-.95h.64c0,.22.02.44.02.66h.02c.18-.39.68-.76,1.34-.76.09,0,.18,0,.28.04l-.04.68c-.11-.03-.24-.05-.36-.05-.82,0-1.18.58-1.18,1.5v1.96h-.67v-3.07Z"/>
      <path class="cls-4" d="m174.79,65.61c.28,0,.49.22.49.49,0,.28-.21.49-.49.49s-.49-.21-.49-.49c0-.27.21-.49.49-.49m-.34,2.06h.67v4.02h-.67v-4.02Z"/>
      <path class="cls-4" d="m178.65,68.24h-1.19v2.01c0,.51,0,.93.6.93.2,0,.41-.04.59-.14l.02.61c-.23.1-.53.15-.78.15-.95,0-1.11-.51-1.11-1.35v-2.21h-.88v-.57h.88v-1.14h.67v1.14h1.19v.57Z"/>
      <path class="cls-4" d="m181.16,72.62c-.26.68-.53,1.14-1.34,1.14-.19,0-.42-.02-.6-.1l.08-.58c.14.05.28.07.47.07.44,0,.6-.27.75-.66l.28-.75-1.67-4.05h.78l1.25,3.15h.02l1.19-3.15h.73l-1.94,4.94Z"/>
      <path class="cls-4" d="m187.09,67.57c1.24,0,2.15.86,2.15,2.11s-.91,2.11-2.15,2.11-2.14-.86-2.14-2.11.91-2.11,2.14-2.11m0,3.61c.87,0,1.43-.65,1.43-1.5s-.56-1.5-1.43-1.5-1.43.65-1.43,1.5.56,1.5,1.43,1.5"/>
      <path class="cls-4" d="m190.39,68.24h-.88v-.57h.88v-.9c0-.98.34-1.68,1.43-1.68.17,0,.39.03.52.11l-.1.6c-.15-.05-.3-.09-.45-.09-.7,0-.72.51-.72,1.2v.76h.98v.57h-.98v3.46h-.67v-3.46Z"/>
      <polygon class="cls-4" points="194.8 65.61 195.52 65.61 195.52 68.19 198.76 68.19 198.76 65.61 199.49 65.61 199.49 71.7 198.76 71.7 198.76 68.86 195.52 68.86 195.52 71.7 194.8 71.7 194.8 65.61"/>
      <path class="cls-4" d="m202.47,67.57c1.24,0,2.15.86,2.15,2.11s-.91,2.11-2.15,2.11-2.15-.86-2.15-2.11.91-2.11,2.15-2.11m0,3.61c.87,0,1.43-.65,1.43-1.5s-.56-1.5-1.43-1.5-1.43.65-1.43,1.5.56,1.5,1.43,1.5"/>
      <path class="cls-4" d="m205.46,68.63c0-.37-.03-.69-.03-.95h.63c0,.22.02.44.02.66h.02c.18-.39.68-.76,1.34-.76,1.06,0,1.53.67,1.53,1.64v2.48h-.67v-2.41c0-.67-.29-1.09-.92-1.09-.87,0-1.25.63-1.25,1.55v1.96h-.67v-3.07Z"/>
      <path class="cls-4" d="m213.99,71.52c0,1.45-.78,2.24-2.19,2.24-.78,0-1.41-.21-1.98-.76l.48-.55c.42.46.88.7,1.49.7,1.2,0,1.52-.77,1.52-1.62v-.52h-.02c-.32.52-.89.75-1.42.75-1.26,0-2.14-.88-2.14-2.06,0-1.31.86-2.11,2.14-2.11.54,0,1.15.26,1.42.79h.02v-.69h.67v3.84Zm-2.11-.39c.92,0,1.44-.69,1.44-1.46,0-.87-.59-1.48-1.44-1.48s-1.42.65-1.42,1.5.64,1.44,1.42,1.44"/>
      <path class="cls-4" d="m223.87,67.57c1.24,0,2.15.86,2.15,2.11s-.91,2.11-2.15,2.11-2.15-.86-2.15-2.11.91-2.11,2.15-2.11m0,3.61c.87,0,1.43-.65,1.43-1.5s-.56-1.5-1.43-1.5-1.43.65-1.43,1.5.56,1.5,1.43,1.5"/>
      <path class="cls-4" d="m226.86,68.63c0-.37-.03-.69-.03-.95h.63c0,.22.02.44.02.66h.02c.18-.39.68-.76,1.34-.76,1.06,0,1.53.67,1.53,1.64v2.48h-.67v-2.41c0-.67-.29-1.09-.92-1.09-.87,0-1.25.63-1.25,1.55v1.96h-.67v-3.07Z"/>
      <path class="cls-4" d="m235.39,71.52c0,1.45-.78,2.24-2.19,2.24-.78,0-1.41-.21-1.97-.76l.48-.55c.42.46.88.7,1.49.7,1.2,0,1.52-.77,1.52-1.62v-.52h-.02c-.32.52-.88.75-1.42.75-1.26,0-2.14-.88-2.14-2.06,0-1.31.86-2.11,2.14-2.11.54,0,1.15.26,1.42.79h.02v-.69h.67v3.84Zm-2.11-.39c.92,0,1.44-.69,1.44-1.46,0-.87-.59-1.48-1.44-1.48s-1.42.65-1.42,1.5.64,1.44,1.42,1.44"/>
      <polygon class="cls-4" points="217.08 65.61 217.8 65.61 217.8 68.24 217.9 68.24 220.67 65.61 221.71 65.61 218.7 68.39 221.85 71.7 220.8 71.7 217.9 68.6 217.8 68.6 217.8 71.7 217.08 71.7 217.08 65.61"/>
    </g>
    <g>
      <path class="cls-1" d="m136.47,54.69h3.65v-.57h-4.33v-1.06c1.19-.11,2.3-.26,3.31-.47l.11-.02-.33-.6h-.06c-2.35.48-4.75.72-7.12.72h-.1l.17.62h.06c1.17-.03,2.29-.09,3.34-.18v1h-4.33v.57h3.64c-.39.42-.9.83-1.53,1.24-.79.51-1.57.9-2.33,1.17l-.08.03.27.56.07-.02c.79-.29,1.66-.75,2.58-1.36.69-.49,1.27-1,1.72-1.52v2.34h-2.6v4.4h5.84v-4.4h-2.64v-2.34c.9,1.02,2.29,1.96,4.13,2.8l.05.02.5-.54-.11-.04c-1.73-.71-3.05-1.5-3.9-2.33Zm1.35,4.85v1.4h-4.62v-1.4h4.62Zm-4.62-.57v-1.29h4.62v1.29h-4.62Z"/>
      <path class="cls-1" d="m188.25,58.72c-.69-.92-1.16-1.92-1.41-3.11h3.8v-.65h-4.61c.11-.79.21-1.72.28-2.83v-.08s-.63,0-.63,0v.07c-.07,1.03-.18,2.01-.3,2.84h-3.88v.65h3.77c-.24,1.23-.56,2.14-.95,2.78-.67,1.1-1.71,2.02-3.17,2.81l-.09.05.47.5.05-.03c1.58-.85,2.68-1.84,3.36-3.04.41-.71.73-1.7.98-3.07h.27c.26,1.29.75,2.4,1.5,3.45.7,1.04,1.6,1.91,2.74,2.66l.07.04.42-.63-.07-.04c-1.08-.66-1.93-1.43-2.6-2.36Z"/>
      <path class="cls-1" d="m174.46,53.13l-.05-.05c-.4-.44-.81-.78-1.25-1.07l-.06-.04-.39.46.07.05c.46.33.85.67,1.16,1.05h-5.24v.62h4.61v1.77h-3.46v4.9h.7v-4.27h2.76v5.21h.7v-5.21h2.89v3.16c0,.37-.15.37-.21.37-.42,0-.91-.11-1.46-.32l-.12-.05.06.67.05.02c.56.2,1.04.29,1.47.29.59,0,.9-.31.9-.9v-3.87h-3.59v-1.77h4.61v-.62h-4.5l.34-.4Z"/>
      <path class="cls-1" d="m145.37,54.33l.06.06.38-.51-.05-.05c-.49-.48-1.05-.92-1.66-1.29l-.06-.04-.35.46.07.05c.54.35,1.08.79,1.6,1.31Z"/>
      <path class="cls-1" d="m150.76,56.13h2.21v-.57h-2.35v-1.37h1.82v-.57h-1.82v-1.57h-.61v1.57h-1.77v-1.57h-.61v1.57h-1.53v.57h1.53v1.37h-2.14v.57h2.08c-.15.32-.37.66-.64,1.01-.37.47-.83.92-1.38,1.31l-.08.06.45.44.05-.04c.5-.37.95-.8,1.35-1.29v2.87c0,.37.05.64.32.81.26.17.95.21,3.06.21.98,0,1.36-.11,1.51-.44.08-.18.14-.64.17-1.41v-.05s-.65-.32-.65-.32v.23c-.02.49-.04.96-.1,1.11-.09.22-.36.26-.93.26-1.57,0-2.4,0-2.61-.13-.13-.08-.16-.16-.16-.32v-1.08h3.05v-2.07c.46.47,1.01.91,1.65,1.32l.06.04.48-.54-.08-.05c-1.03-.6-1.81-1.26-2.33-1.95Zm-2.82,2.68v-1.12h2.44v1.12h-2.44Zm2.07-4.62v1.37h-1.77v-1.37h1.77Zm-2.31,2.93c.22-.33.4-.65.54-.99h1.8c.21.34.47.67.76.99h-3.11Z"/>
      <path class="cls-1" d="m145.57,57.66l-.51-.35-.03.1c-.42,1.4-1,2.71-1.73,3.88l-.04.06.56.39.04-.08c.77-1.37,1.32-2.66,1.7-3.96l.02-.06Z"/>
      <path class="cls-1" d="m144.92,56.75l.06.07.39-.5-.05-.05c-.5-.54-1.04-1-1.66-1.42l-.06-.04-.35.45.07.05c.58.42,1.1.89,1.6,1.43Z"/>
      <path class="cls-1" d="m194.68,56.95h7.75v1.11h.6v-1.68h-.69l.09-3.84h-2.37v.57h1.75l-.02.7h-1.73v.58h1.71v.66h-1.88v.57h1.85l-.02.75h-2.18l.39-.43-.06-.05c-.25-.23-.47-.43-.71-.63.22-.21.42-.45.6-.71l.04-.05-.22-.25.36-.4-.1-.09c-.2-.18-.4-.36-.61-.53.24-.23.46-.48.69-.8l.04-.05-.36-.41-.06.08c-.21.3-.45.57-.74.84-.29-.22-.62-.44-1-.67l-.06-.04-.35.41.08.05c.34.22.63.42.89.61-.31.23-.67.44-1.05.61l-.08.04.29.48.06-.03c.42-.19.82-.43,1.21-.74.21.19.42.39.59.56v.02c-.2.27-.41.51-.66.74-.28-.2-.57-.4-.89-.61l-.06-.04-.35.42.08.05c.24.15.5.33.78.54-.31.23-.64.43-1.02.6l-.08.04.29.45h-2.14v-.79s1.85,0,1.85,0v-.57h-1.87v-.62s1.8,0,1.8,0v-.58h-1.81v-.42c.65-.12,1.28-.33,1.93-.65l.08-.04-.34-.55-.06.03c-.76.33-1.47.54-2.16.65h-.07s.09,3.54.09,3.54h-.69v1.68h.61v-1.11Zm2.86-.59c.43-.19.83-.43,1.19-.72.29.26.52.47.74.7l.04.04h-2.01l.05-.02Z"/>
      <path class="cls-1" d="m203.37,59.3h-4.58s0-.02,0-.02c0-.02-.02-.04-.02-.06,1.08-.33,2.02-.74,2.8-1.21l.04-.02v-.49h-6.06v.57h4.8c-.51.22-1.1.43-1.74.61h0s-.08.02-.15.04h0s0,0-.01,0c-.07.02-.18.05-.29.07-.05.01-.09.02-.14.03l-.1.02.05.09c.06.11.11.23.16.38h-4.39v.57h4.55c.06.25.1.47.12.77.01.27-.01.39-.09.44-.05.04-.1.06-.21.06-.32,0-.67-.08-1.09-.25l-.12-.05.06.68.05.02c.45.14.84.22,1.22.22.24,0,.44-.06.58-.18.18-.15.25-.43.25-.94,0-.25-.04-.48-.1-.77h4.42v-.57Z"/>
      <path class="cls-1" d="m159.15,58.55l-.1-.62-.1.05c-.29.16-.5.25-.89.41v-2.8h1.08v-.57h-1.08v-2.68h-.61v2.68h-1.24v.57h1.24v3.04c-.44.17-.85.32-1.34.46l-.1.03.32.6.06-.02c.91-.3,1.8-.67,2.71-1.13l.05-.03Z"/>
      <path class="cls-1" d="m165.31,59.6c-.06.7-.13,1.21-.2,1.4-.05.14-.11.14-.14.14-.12,0-.35-.22-.63-.83-.15-.33-.29-.7-.41-1.1,0,0,0,0,0,0h0c.52-.74.95-1.95,1.28-3.6l.02-.08-.64-.12v.08c-.24,1.18-.54,2.13-.89,2.84-.08-.33-.15-.7-.21-1.07-.13-.83-.22-1.72-.26-2.65h2.49v-.57h-2.52c-.03-.58-.04-1.2-.04-1.9v-.08h-.65v.08c0,.77.01,1.36.04,1.9h-3.04v2.99c0,1.08-.14,1.93-.43,2.58-.28.64-.67,1.17-1.2,1.62l-.06.05.39.49.06-.05c.58-.48,1.02-1.05,1.34-1.74.33-.72.5-1.67.5-2.88v-.47h1.53c-.04,1.22-.12,2.09-.23,2.45-.1.33-.26.33-.31.33-.17,0-.4-.02-.85-.18l-.11-.04v.67l.06.02c.43.13.73.19.99.19.33,0,.57-.2.73-.61.16-.44.28-1.55.34-3.31v-.08s-2.14,0-2.14,0v-1.44h2.46c.06,1.1.18,2.1.34,2.98.09.5.21,1.02.34,1.47-.52.73-1.2,1.41-2.09,2.02l-.07.05.37.46.06-.04c.78-.51,1.42-1.09,1.95-1.74.12.34.27.67.43.98.33.6.67.92,1.04.97.23.03.45-.08.57-.28.15-.25.26-.73.35-1.52v-.04s-.57-.46-.57-.46v.15Z"/>
      <path class="cls-1" d="m164.59,53.85l.04.09.55-.38-.03-.06c-.25-.49-.52-.88-.89-1.3l-.05-.05-.5.34.05.07c.39.48.62.85.82,1.3Z"/>
    </g>
  </g>
  <g id="Logo">
    <path class="cls-2" d="m118.07,5.6c-.56-1.89-1.42-3.4-3.48-4.07-1.66-.53-3.26-.99-5.02-1.41h0c.07.02.13.04.19.06-.64-.2-1.36-.25-2.08-.08L22.73,22.16c-1.96.51-4.56,2.24-5.78,3.85L.63,47.55c-1.22,1.61-.6,3.28,1.37,3.71l18.45,3.99c-.7-.46-1.34-.99-1.91-1.59-1.11-1.18-1.95-2.59-2.49-4.23-.55-1.64-.74-3.45-.56-5.42.18-2.02.69-3.85,1.54-5.49.85-1.64,1.94-3.04,3.28-4.19,1.34-1.15,2.88-2.04,4.6-2.66,1.72-.62,3.55-.93,5.49-.93,1.79,0,3.52.32,5.2.95,1.67.63,3,1.55,3.96,2.76l-4.51,4.14c-.5-.78-1.2-1.37-2.1-1.75-.9-.38-1.83-.57-2.81-.57-1.07,0-2.08.2-3,.59-.93.39-1.75.93-2.45,1.62-.71.69-1.28,1.5-1.72,2.44-.44.94-.71,1.97-.81,3.08-.1,1.14-.01,2.19.26,3.14.27.95.7,1.77,1.27,2.44.57.68,1.28,1.21,2.14,1.59.85.38,1.8.57,2.85.57,1.22,0,2.3-.24,3.25-.71.95-.48,1.73-1.09,2.35-1.85l3.91,3.99c-1.23,1.28-2.71,2.3-4.42,3.05-1.23.54-2.58.88-4.03,1.03l30.96,6.7.88-4.03c.28.09.59.17.93.23.34.06.65.09.94.09.91,0,1.58-.21,2.02-.62.44-.42.84-1,1.19-1.77l.7-1.46-5.92-17.47h6.51l2.98,11.41h.11l4.54-11.41h6.23l-9.77,20.43c-.44.93-.91,1.75-1.42,2.48-.51.73-1.08,1.34-1.74,1.85-.65.51-1.4.9-2.25,1.16-.28.09-.57.15-.88.21l28.62,6.19c1.98.43,4-.83,4.5-2.78-.02.08-.05.16-.08.25l19.14-52.72c.41-1.36.84-2.1.84-4.45s-.68-5.92-.68-5.92ZM45.16,56.67h-5.87l1.55-17.76h5.87l-1.55,17.76Zm2.1-22.16c-.21.39-.48.73-.8,1.02-.32.29-.7.51-1.13.68-.43.17-.87.25-1.33.25-.95,0-1.73-.31-2.32-.94-.59-.63-.84-1.39-.77-2.26.04-.43.16-.84.36-1.23.2-.39.47-.73.8-1.02.34-.29.71-.52,1.13-.7.42-.18.87-.27,1.35-.27.45,0,.88.08,1.28.25s.74.39,1.02.68c.27.29.48.62.63,1.02.14.39.2.81.16,1.27-.04.45-.17.87-.38,1.27Zm13.31,8.75h-4.19l-.6,6.8c-.07.84.03,1.46.32,1.88.29.42.85.63,1.68.63.29,0,.59-.02.92-.07.33-.05.6-.12.82-.21l-.3,4.28c-.42.14-.94.27-1.57.38-.63.11-1.26.16-1.88.16-1.19,0-2.18-.15-2.97-.45-.79-.3-1.4-.73-1.84-1.29-.44-.56-.73-1.23-.88-2-.15-.77-.18-1.64-.1-2.59l.66-7.51h-2.86l.38-4.35h2.83l.41-4.67h5.76l-.41,4.67h4.19l-.38,4.35Zm36.31,13.34c-1.39.5-2.91.75-4.56.75s-3.15-.25-4.45-.75c-1.29-.5-2.37-1.19-3.22-2.09-.85-.89-1.48-1.96-1.87-3.21-.39-1.25-.52-2.63-.39-4.16l1.38-15.73h6.09l-1.33,15.23c-.06.69-.03,1.34.1,1.96.13.62.35,1.17.68,1.66.33.49.78.87,1.37,1.16.58.29,1.3.43,2.16.43s1.6-.14,2.24-.43c.63-.29,1.16-.67,1.59-1.16.42-.49.75-1.04.97-1.66.22-.62.36-1.27.42-1.96l1.33-15.23h6.12l-1.38,15.73c-.13,1.52-.51,2.91-1.13,4.16-.62,1.25-1.45,2.32-2.48,3.21-1.03.89-2.25,1.59-3.64,2.09Z"/>
  </g>
  <g id="Two_line_construction_20pt" data-name="Two line construction 20pt">
    <g>
      <path class="cls-3" d="m130.66,1.93h4.6c5.06,0,6.44,3.68,6.44,6.68,0,4.06-2.86,7.08-6.7,7.08h-4.34V1.93Zm3.94,12.56c2.1,0,5.74-1.2,5.74-6,0-5.18-4.3-5.34-5.64-5.34h-2.76v11.34h2.66Z"/>
      <path class="cls-3" d="m143.54,11.19c0-2.6,1.38-4.82,4.08-4.82,2.44,0,3.36,1.8,3.36,4.02v.72h-6.2c0,1.88.96,3.56,3.06,3.56.96,0,1.82-.38,2.28-.7,0-.02.58,1.04.58,1.04-.5.3-1.52.8-2.94.8-2.74,0-4.22-2.1-4.22-4.62Zm6.18-1.16c0-1.3-.68-2.52-2.12-2.52-1.68,0-2.52,1.48-2.7,2.52h4.82Z"/>
      <path class="cls-3" d="m153.14,6.49h1.2v1.1c.32-.2,1.46-1.22,2.92-1.22,2.78,0,3.8,2.52,3.8,4.7s-1.24,4.74-3.98,4.74c-1.3,0-2.34-.84-2.74-1.14v5.8h-1.2V6.49Zm6.72,4.6c0-2.16-1-3.58-2.66-3.58-1.5,0-2.52,1.06-2.86,1.38v4.5c.44.4,1.46,1.3,2.7,1.3,1.56,0,2.82-1.38,2.82-3.6Z"/>
      <path class="cls-3" d="m167.88,14.69c-.52.38-1.56,1.12-2.78,1.12-1.58,0-2.38-1.04-2.38-2.28,0-1.96,1.7-2.58,4.14-3.24l.88-.24v-.88c0-1.22-.64-1.7-1.7-1.7s-2.1.94-2.22,1.04l-.7-.86c.36-.28,1.32-1.28,2.92-1.28s2.9.74,2.9,2.58v5.1l1.1.98-.82.9-1.34-1.24Zm-.92-3.4c-1.56.42-3.02,1.02-3.02,2.14,0,1.02.62,1.36,1.34,1.36s1.74-.62,2.46-1.14v-2.58l-.76.22.02-.02s-.02,0-.04.02Zm0,0h.02-.02Z"/>
      <path class="cls-3" d="m172.26,6.49h1.2v1.3c.22-.26,1.3-1.42,2.36-1.42.84,0,1.16.18,1.48.32l-.5,1.18c-.36-.18-.66-.28-1.16-.28-.8,0-1.78.88-2.18,1.54v6.56h-1.2V6.49Z"/>
      <path class="cls-3" d="m179.76,13.41v-5.8h-1.6v-1.12h1.58v-1.72h1.2v1.72h2.42v1.12h-2.4v5.6c0,1.36.56,1.48.96,1.48.78,0,1.3-.36,1.3-.36l.46,1s-.68.48-1.82.48c-1.46,0-2.1-.78-2.1-2.4Z"/>
      <path class="cls-3" d="m185.48,6.49h1.2v1.26c1.12-1,2.36-1.38,3.08-1.38,1.3,0,2,.64,2.26,1.42.38-.34,1.56-1.4,3.14-1.4,1.72,0,2.4,1.12,2.4,2.16v7.14h-1.2v-6.88c0-1.04-.8-1.28-1.3-1.28-1.24,0-2.58,1.2-2.9,1.58v6.58h-1.22v-6.88c0-1.04-.8-1.28-1.28-1.28-1.38,0-2.86,1.4-2.98,1.6v6.56h-1.2V6.49Z"/>
      <path class="cls-3" d="m199.8,11.19c0-2.6,1.38-4.82,4.08-4.82,2.44,0,3.36,1.8,3.36,4.02v.72h-6.2c0,1.88.96,3.56,3.06,3.56.96,0,1.82-.38,2.28-.7,0-.02.58,1.04.58,1.04-.5.3-1.52.8-2.94.8-2.74,0-4.22-2.1-4.22-4.62Zm6.18-1.16c0-1.3-.68-2.52-2.12-2.52-1.68,0-2.52,1.48-2.7,2.52h4.82Z"/>
      <path class="cls-3" d="m209.4,6.49h1.2v1.28c.72-.66,1.9-1.4,3.02-1.4,1.94,0,2.72,1.14,2.72,2.38v6.94h-1.2v-6.5c0-1.22-.72-1.68-1.58-1.68-1.38,0-2.84,1.4-2.96,1.6v6.58h-1.2V6.49Z"/>
      <path class="cls-3" d="m219.84,13.41v-5.8h-1.6v-1.12h1.58v-1.72h1.2v1.72h2.42v1.12h-2.4v5.6c0,1.36.56,1.48.96,1.48.78,0,1.3-.36,1.3-.36l.46,1s-.68.48-1.82.48c-1.46,0-2.1-.78-2.1-2.4Z"/>
      <path class="cls-3" d="m228.26,11.11c0-2,1.34-4.74,4.38-4.74s4.32,2.72,4.32,4.72-1.26,4.72-4.3,4.72-4.4-2.62-4.4-4.7Zm7.44-.02c0-2.58-1.74-3.58-3.04-3.58s-3.14.92-3.14,3.6,1.8,3.58,3.1,3.58,3.08-.92,3.08-3.6Z"/>
      <path class="cls-3" d="m239.88,7.61h-1.6v-1.12h1.6v-2.88c0-1.44.9-2.48,2.36-2.48,1.14,0,1.84.42,1.84.42l-.48,1.04s-.52-.34-1.3-.34c-.4,0-1.24.26-1.24,1.48v2.76h2.22v1.1h-2.2v8.1h-1.2V7.61Z"/>
      <path class="cls-3" d="m130.66,22.83h3.54c1.2,0,3.58.42,3.58,3.3,0,2.12-1.66,2.9-1.94,3.06.52.14,2.28,1.12,2.28,3.32,0,3.12-2.38,4.08-4.82,4.08h-2.64v-13.76Zm2.62,5.84c2.32,0,3.18-1.22,3.18-2.56,0-1.68-1.28-2.06-2.7-2.06h-1.82v4.62h1.34Zm.02,6.72c2,0,3.46-.58,3.46-2.88,0-1.58-1.3-2.62-3.1-2.62h-1.72v5.5h1.36Z"/>
      <path class="cls-3" d="m141.02,24.41c0-.5.4-.9.9-.9s.9.4.9.9-.4.92-.9.92-.9-.42-.9-.92Zm.28,2.98h1.22v9.2h-1.22v-9.2Z"/>
      <path class="cls-3" d="m145.12,32.01c0-2,1.34-4.74,4.38-4.74s4.32,2.72,4.32,4.72-1.26,4.72-4.3,4.72-4.4-2.62-4.4-4.7Zm7.44-.02c0-2.58-1.74-3.58-3.04-3.58s-3.14.92-3.14,3.6,1.8,3.58,3.1,3.58,3.08-.92,3.08-3.6Z"/>
      <path class="cls-3" d="m156.12,27.39h1.2v1.26c1.12-1,2.36-1.38,3.08-1.38,1.3,0,2,.64,2.26,1.42.38-.34,1.56-1.4,3.14-1.4,1.72,0,2.4,1.12,2.4,2.16v7.14h-1.2v-6.88c0-1.04-.8-1.28-1.3-1.28-1.24,0-2.58,1.2-2.9,1.58v6.58h-1.22v-6.88c0-1.04-.8-1.28-1.28-1.28-1.38,0-2.86,1.4-2.98,1.6v6.56h-1.2v-9.2Z"/>
      <path class="cls-3" d="m170.44,32.09c0-2.6,1.38-4.82,4.08-4.82,2.44,0,3.36,1.8,3.36,4.02v.72h-6.2c0,1.88.96,3.56,3.06,3.56.96,0,1.82-.38,2.28-.7,0-.02.58,1.04.58,1.04-.5.3-1.52.8-2.94.8-2.74,0-4.22-2.1-4.22-4.62Zm6.18-1.16c0-1.3-.68-2.52-2.12-2.52-1.68,0-2.52,1.48-2.7,2.52h4.82Z"/>
      <path class="cls-3" d="m179.24,31.97c0-2.18,1.04-4.7,3.8-4.7,1.46,0,2.6,1.02,2.94,1.22v-6.32h1.18v14.42h-1.18v-1.1c-.52.38-1.54,1.22-2.76,1.22-2.72,0-3.98-2.6-3.98-4.74Zm6.74,2.22v-4.4c-.36-.32-1.36-1.38-2.88-1.38-1.66,0-2.64,1.42-2.64,3.58s1.24,3.6,2.8,3.6c1.26,0,2.26-1,2.72-1.4Z"/>
      <path class="cls-3" d="m190.36,24.41c0-.5.4-.9.9-.9s.9.4.9.9-.4.92-.9.92-.9-.42-.9-.92Zm.28,2.98h1.22v9.2h-1.22v-9.2Z"/>
      <path class="cls-3" d="m194.66,31.99c0-3.02,2.14-4.72,4.32-4.72,1.14,0,2.06.38,2.68.8,0,0-.58,1-.58,1.02-.5-.36-1.3-.68-2.04-.68-1.8,0-3.14,1.42-3.14,3.66s1.48,3.52,3.08,3.52c.98,0,1.8-.44,2.26-.76l.6,1.02c-.5.3-1.5.86-2.92.86-2.66,0-4.26-2.2-4.26-4.72Z"/>
      <path class="cls-3" d="m208.06,35.59c-.52.38-1.56,1.12-2.78,1.12-1.58,0-2.38-1.04-2.38-2.28,0-1.96,1.7-2.58,4.14-3.24l.88-.24v-.88c0-1.22-.64-1.7-1.7-1.7s-2.1.94-2.22,1.04l-.7-.86c.36-.28,1.32-1.28,2.92-1.28s2.9.74,2.9,2.58v5.1l1.1.98-.82.9-1.34-1.24Zm-.92-3.4c-1.56.42-3.02,1.02-3.02,2.14,0,1.02.62,1.36,1.34,1.36s1.74-.62,2.46-1.14v-2.58l-.76.22.02-.02s-.02,0-.04.02Zm0,0h.02-.02Z"/>
      <path class="cls-3" d="m212.42,22.17h1.2v14.42h-1.2v-14.42Z"/>
      <path class="cls-3" d="m219.82,35.33l.8-.92c.86.86,2.02,1.1,2.62,1.1,1.5,0,2.74-.98,2.74-2.44,0-1.98-1.5-2.52-3.02-3.22-1.78-.84-2.92-1.6-2.92-3.84,0-1.86,1.76-3.3,3.68-3.3,1.12,0,1.88.1,3.34,1.04l-.72,1.02c-1.36-.9-1.82-.84-2.66-.84-.78,0-2.34.58-2.34,2.18s1.08,2.1,2.3,2.68c1.98.92,3.64,1.58,3.64,4.2,0,2.08-1.76,3.72-3.94,3.72-.9,0-2.24-.1-3.52-1.38Z"/>
      <path class="cls-3" d="m229.18,31.99c0-3.02,2.14-4.72,4.32-4.72,1.14,0,2.06.38,2.68.8,0,0-.58,1-.58,1.02-.5-.36-1.3-.68-2.04-.68-1.8,0-3.14,1.42-3.14,3.66s1.48,3.52,3.08,3.52c.98,0,1.8-.44,2.26-.76l.6,1.02c-.5.3-1.5.86-2.92.86-2.66,0-4.26-2.2-4.26-4.72Z"/>
      <path class="cls-3" d="m238.16,24.41c0-.5.4-.9.9-.9s.9.4.9.9-.4.92-.9.92-.9-.42-.9-.92Zm.28,2.98h1.22v9.2h-1.22v-9.2Z"/>
      <path class="cls-3" d="m242.4,32.09c0-2.6,1.38-4.82,4.08-4.82,2.44,0,3.36,1.8,3.36,4.02v.72h-6.2c0,1.88.96,3.56,3.06,3.56.96,0,1.82-.38,2.28-.7,0-.02.58,1.04.58,1.04-.5.3-1.52.8-2.94.8-2.74,0-4.22-2.1-4.22-4.62Zm6.18-1.16c0-1.3-.68-2.52-2.12-2.52-1.68,0-2.52,1.48-2.7,2.52h4.82Z"/>
      <path class="cls-3" d="m252,27.39h1.2v1.28c.72-.66,1.9-1.4,3.02-1.4,1.94,0,2.72,1.14,2.72,2.38v6.94h-1.2v-6.5c0-1.22-.72-1.68-1.58-1.68-1.38,0-2.84,1.4-2.96,1.6v6.58h-1.2v-9.2Z"/>
      <path class="cls-3" d="m261.24,31.99c0-3.02,2.14-4.72,4.32-4.72,1.14,0,2.06.38,2.68.8,0,0-.58,1-.58,1.02-.5-.36-1.3-.68-2.04-.68-1.8,0-3.14,1.42-3.14,3.66s1.48,3.52,3.08,3.52c.98,0,1.8-.44,2.26-.76l.6,1.02c-.5.3-1.5.86-2.92.86-2.66,0-4.26-2.2-4.26-4.72Z"/>
      <path class="cls-3" d="m269.46,32.09c0-2.6,1.38-4.82,4.08-4.82,2.44,0,3.36,1.8,3.36,4.02v.72h-6.2c0,1.88.96,3.56,3.06,3.56.96,0,1.82-.38,2.28-.7,0-.02.58,1.04.58,1.04-.5.3-1.52.8-2.94.8-2.74,0-4.22-2.1-4.22-4.62Zm6.18-1.16c0-1.3-.68-2.52-2.12-2.52-1.68,0-2.52,1.48-2.7,2.52h4.82Z"/>
      <path class="cls-3" d="m278.36,36.03l.58-1.02c.5.36,1.1.58,1.84.58.88,0,1.6-.54,1.6-1.42,0-.98-.86-1.46-2-2.02-1.26-.64-1.96-1.24-1.96-2.58,0-1.52,1.48-2.3,2.64-2.3,1.02,0,1.78.3,2.28.66l-.56.98c-.34-.26-1.06-.5-1.7-.5-.76,0-1.44.42-1.44,1.14,0,.94.66,1.18,1.42,1.62,1.08.6,2.56,1.18,2.56,3,0,1.68-1.52,2.54-2.8,2.54-1.08,0-1.86-.26-2.46-.68Z"/>
    </g>
  </g>
</svg>